<svg width="62" height="98" viewBox="0 0 62 98" fill="none" xmlns="http://www.w3.org/2000/svg">
<g clip-path="url(#clip0_11_74)">
<path d="M52.7602 80.428C49.6999 80.156 47.9779 75.7543 50.3539 72.6955C50.6804 72.2746 51.0753 71.9033 51.4645 71.5359C52.8703 70.2064 53.9951 70.278 55.3383 71.7335C57.2434 73.7969 59.1542 75.8555 61.0821 77.8969C61.85 78.7101 62.2886 79.6139 61.7874 80.6866C61.2596 81.8176 60.2164 81.8128 59.1438 81.7298C57.8224 81.6277 56.9567 81.1056 56.9226 79.6454C56.9197 79.5146 56.9026 79.3514 56.8257 79.2598C56.4413 78.8007 55.9895 77.9523 55.6439 77.9914C54.6681 78.1002 55.0592 78.9563 55.1598 79.59C55.2263 80.009 55.2889 80.428 55.3525 80.847C55.2026 80.8928 55.0526 80.9386 54.9026 80.9844C54.7298 80.4652 54.5732 79.9403 54.3805 79.4287C54.1413 78.7931 54.0825 77.8034 53.1 78.1413C52.8124 78.2405 52.819 79.234 52.7127 79.821C52.6842 79.9804 52.7355 80.1531 52.7592 80.4289L52.7602 80.428Z" fill="white"/>
<path d="M1.52067 91.017C2.23639 90.977 2.95116 90.9331 3.66688 90.8968C4.15574 90.872 4.68161 90.9636 5.12205 90.8061C5.46283 90.684 5.69634 90.2583 5.97731 89.9672C5.6821 89.6876 5.40967 89.2027 5.08693 89.1655C4.13675 89.0577 3.16664 89.1273 2.1595 89.1273C2.7746 86.5992 7.161 85.1256 9.71538 87.4486C9.97832 87.6881 10.2156 87.9582 10.4453 88.2302C12.5242 90.6992 12.4093 91.8073 9.74006 93.6321C7.82736 94.9396 5.85581 96.1622 3.87666 97.3676C2.42244 98.2533 1.4172 98.1884 0.592321 97.297C-0.149029 96.4962 -0.217374 94.8528 0.520179 93.7724C0.673005 93.5481 1.08877 93.424 1.39442 93.4011C2.45851 93.3229 3.53779 93.3811 4.58953 93.2341C4.9977 93.1768 5.34987 92.7111 5.72766 92.4315C5.35841 92.1394 5.01289 91.6441 4.61516 91.5964C3.60043 91.4761 2.56293 91.5563 1.53491 91.5563C1.53016 91.3759 1.52542 91.1955 1.52162 91.0151L1.52067 91.017Z" fill="white"/>
<path d="M3.83584 84.6134C3.23308 84.6134 2.72904 84.14 2.69392 83.5282C2.47655 79.7335 3.11253 75.8998 4.53258 72.4401C5.73621 69.5091 7.48184 66.8473 9.72013 64.5301C11.1108 63.0899 12.6618 61.8148 14.3286 60.7392C14.8612 60.3956 15.5693 60.5512 15.911 61.0866C16.2527 61.622 16.098 62.334 15.5655 62.6776C13.256 64.1674 9.02624 67.5307 6.64937 73.3181C5.35936 76.46 4.78223 79.9445 4.97967 83.3956C5.01574 84.0302 4.53353 84.5742 3.90229 84.6115C3.87951 84.6124 3.85768 84.6134 3.8349 84.6134H3.83584Z" fill="white"/>
<path d="M41.657 83.9606C41.2726 83.9606 40.9366 83.9358 40.6527 83.9005C39.0571 83.703 37.5079 83.0673 36.0471 82.0127C34.6308 80.9896 33.3683 79.622 32.2957 77.947C30.0498 74.4415 28.8395 69.8404 28.888 64.9911C28.8946 64.3593 29.4053 63.8516 30.0327 63.8516C30.0365 63.8516 30.0403 63.8516 30.0441 63.8516C30.6763 63.8582 31.1842 64.3784 31.1775 65.014C31.1338 69.4185 32.2141 73.5692 34.2198 76.7006C36.0252 79.5189 38.4723 81.3103 40.9318 81.6157C42.1364 81.7655 44.6177 81.6586 47.6913 79.2612C48.1915 78.8718 48.9101 78.9634 49.2983 79.4654C49.6856 79.9684 49.5945 80.6909 49.0952 81.0812C46.0501 83.4548 43.378 83.9616 41.6551 83.9616L41.657 83.9606Z" fill="white"/>
<path d="M13.5265 33.5541C13.2152 33.5541 12.8953 33.4816 12.5906 33.2926C11.3642 32.5301 11.6433 30.7358 11.8274 29.5486C12.0752 27.9528 12.6922 26.4449 13.6604 25.0648C14.0249 24.5456 14.7397 24.4216 15.256 24.788C15.7724 25.1545 15.8958 25.8732 15.5313 26.3924C14.7681 27.4804 14.2831 28.6619 14.0894 29.9045C14.0515 30.1479 13.9727 30.6585 13.9528 31.0584C14.0819 30.984 14.2442 30.8809 14.4454 30.7387C14.9371 30.3913 15.4772 29.9408 16.0819 29.4312C17.6263 28.1303 19.0682 26.6424 20.3667 25.0085C20.7616 24.5122 21.4821 24.4311 21.9766 24.8281C22.4702 25.2252 22.5509 25.9495 22.156 26.4468C20.7625 28.199 19.2134 29.7967 17.5532 31.1958C16.7463 31.8754 16.023 32.4728 15.3462 32.9013C15.0482 33.0894 14.3144 33.5532 13.5256 33.5532L13.5265 33.5541Z" fill="white"/>
<path d="M30.2662 19.2355C30.0318 19.2355 29.7964 19.164 29.5923 19.0141C29.0816 18.639 28.9696 17.9194 29.3417 17.405C30.7114 15.5182 32.0347 13.5607 33.2753 11.5889C35.4813 8.08249 37.506 4.40331 39.2915 0.654449C39.5649 0.0808584 40.2484 -0.161558 40.8189 0.113308C41.3893 0.388173 41.6304 1.07534 41.3571 1.64893C39.5326 5.47891 37.4652 9.23827 35.2108 12.8201C33.9426 14.8348 32.5909 16.8343 31.1917 18.7622C30.9677 19.0714 30.6194 19.2346 30.2653 19.2346L30.2662 19.2355Z" fill="white"/>
<path d="M57.2823 28.8775C57.0697 28.8775 56.8552 28.8183 56.6634 28.6943C55.1209 27.696 53.5234 26.7168 51.9163 25.7834C46.1535 22.4392 40.1544 19.6199 34.0869 17.4019C31.897 16.6011 29.6379 15.8577 27.373 15.1905C26.7664 15.0121 26.4181 14.3726 26.5956 13.7618C26.7731 13.152 27.4091 12.8017 28.0166 12.9802C30.3279 13.6606 32.6336 14.4203 34.8691 15.2373C41.0619 17.5002 47.1825 20.3777 53.0611 23.7887C54.7004 24.7402 56.3293 25.7385 57.9031 26.7578C58.4347 27.1023 58.5885 27.8143 58.2458 28.3488C58.0265 28.6904 57.6582 28.8765 57.2823 28.8765V28.8775Z" fill="white"/>
<path d="M54.2419 24.9032C50.6168 18.3341 43.6048 16.1839 42.1905 15.783C40.7192 15.3659 33.3399 13.4371 26.6364 17.5467C22.4189 20.1322 20.7113 23.6882 17.3966 30.5914C15.9917 33.5175 14.528 36.6241 13.6756 40.5104C13.761 40.54 13.8455 40.5782 13.9252 40.6297C15.9566 41.9324 20.1968 44.0722 25.7621 43.7687C31.7907 43.4404 35.973 40.476 37.9294 38.7381C38.4031 38.3172 39.1273 38.362 39.5459 38.8392C39.9645 39.3155 39.9199 40.0437 39.4453 40.4646C37.2659 42.4001 32.6061 45.7023 25.8855 46.0688C25.4831 46.0907 25.0853 46.1012 24.6962 46.1012C19.5285 46.1012 15.5066 44.265 13.2465 42.9136C13.1763 43.4203 13.1165 43.9405 13.07 44.4749C12.7292 48.3145 12.3571 52.6207 14.8241 57.0567C17.3187 61.5424 21.2704 63.5523 22.7825 64.2948C23.2486 64.5239 32.4694 68.8769 40.91 64.1774C45.3182 61.7227 47.2328 58.0684 49.9153 52.7715C53.8224 45.0552 59.345 34.1494 54.2429 24.9032H54.2419ZM33.3095 31.561C31.7043 33.8621 29.9986 35.6859 28.3773 36.8379C26.9022 37.8858 25.7185 38.2179 24.811 38.2179C24.2785 38.2179 23.8409 38.1034 23.4944 37.9517C22.4892 37.5117 22.0003 36.6604 21.7915 36.2967C20.3069 33.7142 21.2894 29.7887 24.3554 26.0513C24.7579 25.5608 25.4793 25.4911 25.9672 25.8958C26.4551 26.3004 26.5244 27.0258 26.1219 27.5163C23.7536 30.4024 22.81 33.4679 23.7735 35.1438C23.8941 35.3528 24.0943 35.7031 24.4095 35.8405C24.9524 36.0782 25.9415 35.748 27.0559 34.9568C28.4646 33.9566 29.9786 32.3246 31.4347 30.2383C31.7983 29.7181 32.5121 29.5921 33.0295 29.9567C33.5468 30.3222 33.6721 31.0399 33.3095 31.5601V31.561Z" fill="white"/>
</g>
<defs>
<clipPath id="clip0_11_74">
<rect width="62" height="98" fill="white"/>
</clipPath>
</defs>
</svg>
