<svg width="83" height="76" viewBox="0 0 83 76" fill="none" xmlns="http://www.w3.org/2000/svg">
<path d="M79.0388 47.7792C76.9657 50.7638 73.577 52.2612 70.2431 53.2967C66.4158 54.4946 62.4042 55.1088 58.3975 55.1545H58.3826C57.8095 55.1545 57.4656 54.7941 57.351 54.3525C57.2862 54.1139 57.2962 53.8449 57.3759 53.6013C57.5154 53.2003 57.8543 52.8653 58.3925 52.8602C62.459 52.8145 66.4906 52.1445 70.3527 50.8552C73.0238 49.9669 76.0189 48.637 77.4641 46.0179C78.5355 44.0891 78.6451 41.0841 76.7016 39.6731C75.4657 38.7695 73.8112 38.6122 72.3411 38.4345C70.4972 38.2264 68.6434 38.0894 66.7896 38.0437C66.3012 38.0386 65.8078 38.0285 65.3195 38.0285C63.1417 38.0285 60.964 38.1452 58.7912 38.3787C58.5071 38.4092 58.2331 38.4396 57.949 38.4751C57.7098 38.5056 57.4706 38.531 57.2364 38.5665C56.753 38.6376 56.2696 38.7086 55.7862 38.7848C55.7015 38.8051 55.6168 38.8102 55.537 38.8102C55.0287 38.8102 54.5553 38.5462 54.4058 37.9828C54.2563 37.4397 54.5852 36.6681 55.1932 36.5717C55.7862 36.4752 56.3742 36.3839 56.9673 36.3077C59.7729 35.9321 62.5935 35.7291 65.4191 35.7291C66.6451 35.7291 67.866 35.7697 69.082 35.8458C71.0404 35.9626 73.0388 36.1149 74.9574 36.5209C76.6667 36.8864 78.2614 37.6681 79.3079 39.135C81.087 41.612 80.7332 45.3377 79.0438 47.7691M62.2048 40.673C63.2414 40.6172 64.2779 40.5918 65.3244 40.5918C65.7929 40.5918 66.2663 40.5969 66.7397 40.607C68.5138 40.6527 70.3029 40.7745 72.067 40.9776L72.2265 40.9979C73.3876 41.1298 74.5886 41.272 75.2564 41.7542C75.9242 42.2465 75.8195 43.8048 75.2863 44.7642C74.2298 46.6727 71.6833 47.7234 69.5853 48.4188C65.9773 49.6218 62.2098 50.2512 58.3826 50.2969C58.263 50.2969 58.1434 50.3019 58.0237 50.3222C60.2862 47.967 61.6816 45.6017 62.3543 43.0231C62.5636 42.2313 62.5038 41.409 62.2098 40.6781M54.2712 50.373C48.1416 55.6215 40.1931 58.469 32.2296 58.469C29.2296 58.469 26.2295 58.068 23.3192 57.2356C22.0435 56.8701 22.4372 54.9768 23.5883 54.9819C23.698 54.9819 23.8026 54.9971 23.9222 55.0276C26.6382 55.8042 29.4239 56.195 32.2445 56.195H32.404C37.4422 56.1697 42.4755 54.9362 46.9606 52.5962C49.228 51.4136 51.3609 49.9568 53.2746 48.2361C54.944 46.7234 56.5287 45.0027 57.3859 42.881C57.5354 42.5206 57.655 42.1501 57.7546 41.7694C57.8543 41.3582 58.1085 41.1197 58.4025 41.0182C58.5221 40.9725 58.6467 40.9522 58.7713 40.9522C58.8111 40.9522 58.846 40.9522 58.8809 40.9572H58.8958C59.5287 41.0232 60.1317 41.5664 59.9274 42.3734C59.4689 44.1449 58.5769 45.7286 57.4556 47.1397C56.5138 48.3325 55.4124 49.4035 54.2762 50.3781M32.5535 38.2518C32.4389 39.7695 32.1748 41.2669 31.7163 42.7135C31.3425 43.8911 30.904 45.1651 29.9123 45.9468C28.8259 46.7996 27.3259 46.7539 26.1697 46.0737C25.1083 45.4545 24.3508 44.3581 23.8176 43.2617C23.2196 42.0587 22.8807 40.7948 22.7212 39.4649C22.6465 38.8457 23.2943 38.3178 23.8475 38.3178C24.5103 38.3178 24.899 38.8508 24.9737 39.4649C25.1033 40.5664 25.5319 41.7948 26.1448 42.815C26.2046 42.9165 26.2744 43.0231 26.3442 43.1297C26.384 43.1805 26.4189 43.2414 26.4588 43.2972C26.4638 43.3023 26.4737 43.3125 26.4737 43.3175C26.4737 43.3175 26.4787 43.3226 26.4887 43.3328C26.4887 43.3328 26.5136 43.3734 26.5385 43.3987C26.6133 43.4952 26.698 43.5815 26.7777 43.6728C26.8076 43.7033 27.0219 43.9013 27.0219 43.9114C27.4256 44.2312 27.7744 44.3581 28.203 44.3023C28.203 44.2819 28.3923 44.2261 28.4123 44.2261C28.4571 44.2007 28.5269 44.1551 28.5518 44.1398C28.7711 43.9672 28.7512 43.9672 28.9156 43.6881C29.0003 43.5561 29.0651 43.414 29.1349 43.2668C29.1548 43.2363 29.1598 43.216 29.1698 43.1957C29.1797 43.1754 29.1897 43.145 29.1997 43.1043C29.3143 42.7947 29.4289 42.4902 29.5286 42.1805C29.9422 40.8811 30.2013 39.5766 30.296 38.2569C30.3458 37.6376 30.7794 37.1097 31.4223 37.1097C32.0003 37.1097 32.5983 37.6427 32.5535 38.2569M48.7845 34.8256C48.6599 36.9473 48.3509 39.0589 47.8327 41.1197C47.439 42.7084 47.0054 44.5053 45.8692 45.7387C44.6433 47.0686 42.6399 47.1143 41.2197 46.0636C39.8293 45.0383 39.027 43.4597 38.3841 41.876C37.7064 40.2111 37.3226 38.4498 37.1532 36.658C37.0884 36.0387 37.7113 35.5108 38.2795 35.5108C38.9273 35.5108 39.3409 36.0438 39.4057 36.658C39.5751 38.4396 40.0436 40.2263 40.816 41.8303C41.2795 42.8099 42.3808 44.9672 43.7762 44.4748C44.3443 44.2769 44.6582 43.6322 44.8825 43.0942C45.2214 42.2973 45.4356 41.4395 45.6449 40.607C46.1283 38.7137 46.4224 36.7798 46.537 34.8256C46.5719 34.2063 47.0204 33.6784 47.6632 33.6784C48.2463 33.6784 48.8244 34.2114 48.7895 34.8256M19.4322 25.3489C19.2129 25.3489 18.9986 25.3439 18.7793 25.3439C17.3391 25.3235 17.3341 23.0496 18.7594 23.0496H18.7793C19.771 23.0648 20.7727 23.0749 21.7644 23.08H21.7694C23.3491 23.1054 24.9239 23.1257 26.4986 23.1358C29.384 23.1612 32.2694 23.1765 35.1548 23.1917C35.0901 23.0445 35.0602 22.8821 35.0701 22.6892C35.1399 21.0344 35.2396 19.3899 35.3592 17.7453C35.404 17.126 35.4539 16.5017 35.5087 15.8824C35.5087 15.857 35.5136 15.8266 35.5136 15.7961C35.5186 15.7555 35.5186 15.7251 35.5286 15.6895C35.5535 15.4154 35.5784 15.1413 35.6034 14.8622C35.6083 14.8063 35.6083 14.7454 35.6183 14.6896C35.6482 14.2784 35.6931 13.8673 35.7379 13.4612C35.7429 13.4257 35.7429 13.3902 35.7529 13.3546C35.7678 13.1668 35.7828 12.9892 35.8077 12.8064C35.8625 12.2176 35.9273 11.6339 35.997 11.0451C36.022 10.8065 36.0469 10.5731 36.0768 10.3345C36.1615 9.63401 36.2462 8.93862 36.3359 8.23815C36.3409 8.19246 36.3459 8.14678 36.3558 8.10617C36.4555 7.32957 36.5652 6.56311 36.6748 5.79665C36.7894 4.99466 36.914 4.19775 37.0386 3.39576C37.1183 2.8831 37.6665 2.56332 38.1499 2.56332C38.2446 2.56332 38.3393 2.57855 38.419 2.59377C39.0569 2.77143 39.306 3.39576 39.2113 3.99979C39.0868 4.7764 38.9672 5.54793 38.8575 6.32454C38.7429 7.10115 38.6383 7.87268 38.5386 8.65437C38.4439 9.36499 38.3542 10.0908 38.2695 10.8065C38.2645 10.8725 38.2545 10.9284 38.2496 10.9842C38.1798 11.5781 38.12 12.177 38.0552 12.7709C38.0502 12.8673 38.0353 12.9587 38.0303 13.0501C38.0054 13.2633 37.9854 13.4663 37.9655 13.6693C37.9605 13.6846 37.9605 13.6947 37.9605 13.7099C37.9157 14.1465 37.8708 14.5881 37.8359 15.0246C37.8309 15.1312 37.816 15.2327 37.811 15.3444C37.7412 16.1108 37.6814 16.8824 37.6216 17.6437H37.6166C37.5618 18.4813 37.502 19.3188 37.4522 20.1665C37.4024 21.004 37.3575 21.8516 37.3226 22.6892C37.3077 22.8871 37.2578 23.0546 37.1831 23.2018C40.7612 23.2171 44.3293 23.2272 47.9074 23.2272C49.1583 23.2272 50.4141 23.2272 51.6749 23.2221C52.3526 23.2221 53.0254 23.2171 53.7081 23.2171H53.7131C55.1583 23.2171 55.1533 25.5012 53.7081 25.5114H53.2247C51.0121 25.5266 48.7994 25.5266 46.5868 25.5266H45.9838C41.4489 25.5266 36.919 25.5063 32.3841 25.4809C30.2213 25.4657 28.0634 25.4403 25.9106 25.4251C23.7478 25.4048 21.59 25.3794 19.4371 25.3489M19.0833 51.5608C18.2411 51.7283 17.384 51.8805 16.5268 51.9922C16.3574 52.0125 16.1929 52.0328 16.0285 52.048C15.864 52.0633 15.6996 52.0785 15.5351 52.0937C15.3607 52.1089 15.1913 52.1191 15.0218 52.1343C14.8773 52.1496 14.7278 52.1546 14.5733 52.1597C14.359 52.1648 14.1398 52.1749 13.9205 52.1749C12.5949 52.1749 11.2843 52.0125 10.0135 51.5912C5.15966 49.972 2.94702 44.9976 2.57825 40.1299C2.15466 34.6479 3.80416 28.9477 6.76431 24.3896C7.00352 24.0191 7.34737 23.8617 7.69621 23.8617C8.48857 23.8617 9.26599 24.684 8.70784 25.5469C7.13807 27.9681 6.00683 30.6329 5.35401 33.4602C4.41712 37.6021 4.36231 42.5105 6.69455 46.2159C7.78591 47.9569 9.43542 49.1345 11.4089 49.6015C12.2511 49.8045 13.1182 49.8806 13.9853 49.8806C14.1497 49.8806 14.3142 49.8806 14.4786 49.8654C14.6431 49.8654 14.8076 49.8553 14.967 49.84C15.3956 49.8147 15.8242 49.769 16.2527 49.7182C16.2727 49.7182 16.2826 49.7131 16.2976 49.7131C16.4022 49.6979 16.5169 49.6878 16.6315 49.6675C16.7361 49.6522 16.8458 49.637 16.9604 49.6167C17.1797 49.5862 17.3989 49.5558 17.6182 49.5101C17.9072 49.4593 18.1963 49.4086 18.4853 49.3477C18.575 49.3274 18.6597 49.3223 18.7494 49.3223C19.2528 49.3223 19.7212 49.6015 19.8707 50.1497C20.0202 50.7131 19.6813 51.444 19.0833 51.5557M81.3561 37.6376C80.0554 35.8205 78.0222 34.5718 75.4856 34.0338C73.3976 33.5871 71.2597 33.4297 69.2564 33.3028C67.9906 33.2267 66.7098 33.1861 65.4341 33.1861C62.4739 33.1861 59.449 33.3993 56.4241 33.8155C56.1849 32.8815 55.8709 31.7851 55.4473 30.6025C55.1284 29.704 54.8244 28.8564 54.4606 27.9985C56.1151 27.6483 57.3211 26.1712 57.3161 24.3591C57.3061 22.2831 55.7314 20.6588 53.7181 20.6588C52.2729 20.6639 50.8377 20.6639 49.4074 20.6639C49.2928 20.5573 49.1881 20.4456 49.0785 20.3492C48.0071 19.6589 46.4522 18.8264 44.3742 18.2681C42.8393 17.8519 41.4589 17.7047 40.1532 17.659C40.4821 13.1973 41.0004 8.76096 41.6931 4.41601C42.012 2.43642 40.9157 0.629409 39.0918 0.126897C38.7977 0.0355311 38.4788 0 38.1549 0C36.3808 0 34.8359 1.2842 34.5568 2.98462C33.7595 7.99958 33.1764 13.0552 32.8226 18.0803C32.6133 18.1158 32.399 18.1564 32.1847 18.2021C31.2877 18.395 28.5718 18.999 25.5717 20.5675H25.5667C23.3142 20.5471 21.0568 20.5167 18.8142 20.4913H18.7594C16.766 20.4913 15.1963 22.1004 15.1763 24.1612C15.1614 25.892 16.2527 27.3184 17.7777 27.76C16.761 29.699 16.3175 31.9171 15.6597 35.4093C15.6547 35.4398 15.6448 35.4753 15.6398 35.5058C15.0866 36.7087 15.0119 38.333 14.967 40.6222C14.9072 41.6425 14.9072 42.5409 14.9222 43.4343C14.9022 45.2007 14.9072 46.495 14.9172 47.2818C14.6032 47.3072 14.2943 47.3224 13.9853 47.3224C13.2428 47.3224 12.5899 47.2513 11.9869 47.1092C10.6414 46.7894 9.54008 46.0027 8.80752 44.8352C6.59986 41.3176 7.23774 36.5565 7.80585 34.0338C8.37894 31.5161 9.38559 29.1355 10.8059 26.9529C11.5434 25.821 11.6132 24.4505 10.9952 23.2881C10.3574 22.075 9.06665 21.2984 7.69621 21.2984C6.46032 21.2984 5.35899 21.9075 4.66629 22.9734C1.2975 28.161 -0.376928 34.4906 0.0715797 40.3228C0.594839 47.16 4.01845 52.2866 9.23609 54.0175C10.6713 54.4997 12.1962 54.7281 13.9205 54.7281C14.3142 54.7281 14.7129 54.7129 15.1016 54.6875C15.1464 55.6367 15.2112 56.1341 15.3159 56.8092C15.4554 57.662 15.869 60.0375 16.9305 63.0322C17.7179 65.2555 18.4305 67.2351 20.085 69.5852C21.2162 71.2044 22.4073 72.448 23.2993 73.2855C24.3608 73.9758 25.9206 74.8083 28.0036 75.3717C30.5103 76.0417 32.6183 76.0214 34.6166 75.9859C35.8226 75.9656 37.7612 75.9351 40.1781 75.4377C41.0951 75.2499 43.8758 74.6255 46.9157 73.0114C47.9971 72.4328 51.0121 70.7273 53.3393 67.8137C55.3327 65.3164 55.8161 62.9206 56.7081 58.2305L56.7281 58.134C56.8277 57.9158 56.9124 57.6873 56.9722 57.4386C57.4058 57.6214 57.8842 57.7279 58.3925 57.7279H58.4374C62.743 57.6772 66.969 57.0173 70.9906 55.7636C74.3145 54.718 78.4707 53.0429 81.092 49.2766C83.5388 45.7641 83.6435 40.871 81.3412 37.6478" fill="white"/>
</svg>
